<?xml version="1.0" encoding="UTF-8"?>
<svg data-bbox="2.238 2.105 1525.762 1689.895" preserveAspectRatio="none" viewBox="-20.68 -12.43 1548.68 1718.96" height="212" width="191" xmlns="http://www.w3.org/2000/svg" display="block" data-type="ugc">
    <g>
        <path d="M1528 39.713c-7.23 23.614-57.46 58.538-77.8 74.765a6278 6278 0 0 1-114.22 90.417l-326.42 256.109-72.054 55.513c-31.265 23.746-63.313 46.92-89.371 76.911-19.124 22.011-22.44 67.596-10.624 94.29 6.096 13.772 34.119 32.84 35.131 45.32 1.18 14.536-40.246 44.103-50.792 52.506l-59.958 47.815c-53.035 42.417-106.194 88.464-163.502 125.924-14.247 9.312-37.073 14.468-53.68 16.154-27.01 2.743-47.072-7.403-71.03-17.156-91.202-33.607-183.623-64.061-275.094-96.969-47.218-15.198-92.639-30.27-129.495-64.858-85.817-80.536-89.775-214.615-7.462-299.274 48.692-50.081 90.004-61.129 152.962-80.951l85.304-27.155 245.058-77.568 762.007-247.38c50.95-16.247 101.52-34.859 152.6-50.911 13.8-4.34 27.94-10.472 42.43-11.11 7.32 2.913 21.33 14.695 26.01 21.957z" fill="rgba(254, 208, 30, 1)"/>
        <path d="M34.289 1692c-10.011-4.88-22.438-11.22-26.2-22.6-2.13-6.44-1.007-13.24 2.354-19.05 8.411-14.53 94.42-81.31 113.482-96.64l309.842-244.01 328.007-259.08c10.108-8.02 19.828-17.36 30.083-24.93 41.176-30.412 79.858-63.237 118.983-96.07 44.501-37.344 91.2-73.192 136.79-109.18 14.2-10.796 41.97-22.753 60.13-18.453 33.93 8.031 64.5 20.81 97.98 32.565 46.63 16.371 98.54 31.284 142.89 53.432 15.1 7.54 34.19 24.799 47.63 35.531 29.3 29.144 54.37 71.752 63.3 112.075a221.28 221.28 0 0 1-30.17 166.47c-54.78 85.57-122.47 95.88-213.24 124.42-67.63 21.8-135.45 42.99-203.45 63.58l-726.022 226.35-168.796 53.74a2484 2484 0 0 1-44.778 13.41c-4.998 1.46-22.351 6.42-26.363 8.44z" fill="rgba(254, 208, 30, 1)"/>
    </g>
</svg>
