<?xml version="1.0" encoding="UTF-8"?>
<svg viewBox="-5 -5 520 587" xmlns="http://www.w3.org/2000/svg">
    <path d="M509.994 0h4.133c2.611 2.154 9.429 8.747 7.794 11.981-7.96 15.741-35.646 34.208-49.326 44.97l-119.403 93.686c-20.499 16.036-46.215 34.063-63.943 52.732-2.866 3.017-4.193 8.549-5.034 12.596-3.271 15.734 6.288 22.56 14.323 34.333-8.506 11.826-27.529 25.078-39.064 34.705-14.687 12.414-30.606 24.145-45.67 35.924-26.66 20.847-44.5 7.813-71.951-1.719l-59.425-20.634c-25.72-8.884-51.453-14.448-67.823-37.863-24.971-35.717-14.458-80.283 22.15-103.183 17.934-11.218 41.684-16.633 61.949-23.07l79.62-25.221 243.97-79.308c13.12-4.138 80.791-24.871 87.7-29.929" fill="#FDCF22"/>
    <path d="M9.363 577c-9.61-9.133-8.781-12 1.062-20.431 15.17-12.994 30.92-25.305 46.576-37.711q51.998-41.222 104.5-81.8l129.964-102.989c11.604-9.319 69.337-59.946 80.21-59.827 18.117.199 64.624 19.39 84.229 26.984 25.783 9.986 44.353 41.079 44.095 68.708a79.35 79.35 0 0 1-23.524 55.253c-16.533 16.219-46.609 23.174-68.51 29.995l-74.584 23.147-228.542 70.984C94.707 552.448 25.558 573.609 19.902 577z" fill="#FDCF22"/>
</svg>
