<?xml version="1.0" encoding="UTF-8"?>
<svg data-bbox="0 0 2048 659" preserveAspectRatio="none" viewBox="-0.16 -0.8 2048.16 660.6" height="209" width="648" xmlns="http://www.w3.org/2000/svg" display="block" data-type="ugc">
    <g>
        <path d="M1698.44 223.304c24.53-1.753 45.52 2.599 67.36 14.008 5.33 2.781 13.79 8.869 18.56 10.796 8.33-8.972-3.25-28.629 34.91-24.589 13.42 1.421 21.06 3.061 21.54 19.087.46 15.084.09 30.022.08 44.95l-.03 87.392c-.28 64.342 13.89 134.043-42.03 180.988-35.39 29.717-71.47 31.866-115.79 30.306-17.42-.613-35.44.76-53.08-.696-2.79-1.799-6.06-5.231-8.51-7.614-.5-12.059-.23-24.534-.13-36.633l6.23-6.68c6.39-5.007 22.49-2.479 29.59-2.427 32.03.233 80.54 5.419 105.43-18.605 20.86-20.139 22.98-33.557 24.37-59.674-19.07 12.619-33.25 19.907-56.33 23.51-32.76 5.112-69.54-4.828-96.18-24.297a124.12 124.12 0 0 1-48.63-81.748 131.9 131.9 0 0 1 23.57-98.99c22.86-31.066 52.3-43.528 89.07-49.084m18.08 199.594c39.65-2.86 69.56-37.192 66.95-76.86-2.6-39.669-36.74-69.794-76.43-67.442-40.04 2.373-70.5 36.891-67.87 76.921 2.63 40.029 37.34 70.267 77.35 67.381" fill="rgba(21, 20, 20, 1)"/>
        <path d="M799.744 225.319c6.009-1.343 46.749-1.202 54.067-.771 18.874 1.111 78.381-3.266 91.587 4.171 7.225 9.729 4.604 28.228 3.605 40.267-1.894 2.774-4.583 5.883-6.746 8.525-29.331 5.288-73.441-.609-104.275 1.406-21.853 1.428-41.352-8.208-48.254 21.098 6.361 23.442 20.647 20.644 40.167 21.459 34.759 1.453 75.138-7.868 104.544 14.982 15.16 11.78 25.53 29.5 28.127 48.611a80.2 80.2 0 0 1-15.348 59.654c-14.506 19.006-32.634 26.131-55.499 29.169l-89.082.21c-9.455.011-55.432 2.056-61.212-4.887-4.262-5.119-2.586-29.765-2.369-38.533 2.051-3.276 4.605-5.989 7.156-8.888 27.032-6.913 79.016-.796 108.172-1.357 15.155-.292 25.915.396 41.276-2.083 3.005-2.476 6.814-5.541 8.924-8.788 8.833-13.597 2.46-29.689-13.371-32.858-38.515-8.285-93.199 9.178-126.26-17.319-52.27-41.892-33.897-123.67 34.791-134.068" fill="rgba(21, 20, 20, 1)"/>
        <path d="M1422.02 223.282c36.59-3.765 74.03 9.736 101.32 36.638 51.24 50.508 29.69 126.392 34.63 190.501 1.92 24.879-10.96 24.531-30.85 23.929-10.43-.316-16.35-.054-24.14-8.334-1.56-34.493.02-71.074-.35-105.848-.54-49.542-22.5-82.095-75.42-81.183a61.87 61.87 0 0 0-34.61 13.575c-15.61 12.422-25.5 30.74-27.3 50.836-3.5 38.93 2.96 83.774-1.53 122.166l-6.67 7.07c-7.66 1.761-39.42 4.614-44.92-4.583-1.24-2.075-2.24-14.091-2.26-17.412-.36-60.033-.13-120.096-.16-180.133-.01-11.757-.47-26.977 1.87-38.475 2.24-11.025 35.47-8.772 43.3-5.877 6.98 2.579 10.18 12.056 12.85 18.068 13.33-12.832 36.61-17.901 54.24-20.938" fill="rgba(21, 20, 20, 1)"/>
        <path d="M1058.16 155.346c9.8-.375 32.74-3.153 39.23 4.924 8.97 11.154-1.76 52.895 6.97 62.142 8.37 4.446 48.51 1.499 59.77 1.421 29.72-1.46 24.76 14.646 24.92 36.713.07 8.557-1.97 11.263-8.01 17.05-22 2.791-55.65 1.14-79.1 1.541-.02.085-.03.169-.05.254-2.46 23.07-.7 50.331-1.13 73.646-.59 32.095 15.17 60.537 48.43 66.562 10.38 2.482 28.53-2.279 36.62 5.729 6.37 6.296 4.32 27.888 4.12 36.664-3.36 9.611-9.27 12.824-19.23 13.106-33.65.95-64.37-8.285-89.43-30.883-45.34-40.901-32.49-96.544-33.91-150.68-.12-3.626-1.88-12.069-4.15-12.851-19.14-6.619-47.399 5.9-64.115-9.349l.026-38.059c10.891-13.286 43.989-8.706 60.379-8.421l6.33-6.192c.65-15.906-3.08-44.557 3.47-58.151 1.66-3.432 5.36-4.399 8.86-5.166" fill="rgba(21, 20, 20, 1)"/>
        <path d="M1235.83 223.413c9.45-.482 28.72-2.051 35.37 4.993 6.55 6.942 4.68 38.853 4.67 48.306l.02 56.508.02 79.423c0 14.213 2.18 43.003-3.89 56.163-1.6 3.474-8.77 4.374-12.55 4.956-8.87.258-28.55 2.32-35.98-4.464-1.5-1.366-2.4-13.735-2.41-16.344-.24-43.114-.05-86.258-.07-129.376.01-16.985-.08-34.026.02-51.009.08-12.919-.54-26.828.74-39.586 4.85-6.283 6.2-8.144 14.06-9.57" fill="rgba(21, 20, 20, 1)"/>
        <path d="M1242.62 110.893c18.93-3.218 36.85 9.632 39.88 28.598s-10 36.76-28.99 39.6c-18.73 2.801-36.22-10.005-39.21-28.706-2.99-18.7 9.65-36.318 28.32-39.492" fill="rgba(21, 20, 20, 1)"/>
        <path d="M583.312 0h4.207c10.989 10.734 11.962 16.734-1.031 27.765-19.142 16.251-39.591 31.557-59.341 47.143L395.006 178.433c-15.605 12.233-50.632 37.617-61.89 50.706a36.9 36.9 0 0 0-9.107 22.824c-.632 16.773 17.277 30.967 14.091 37.159-3.356 6.522-41.861 36.531-49.287 42.066-15.228 10.66-57.704 51.263-74.806 48.303-35.076-6.071-76.68-24.144-110.26-35.761-38.366-13.273-84.965-22.217-97.054-66.425-1.155-4.223-4.865-19.339-6.693-21.538v-10.632c2.629-3.372 2.722-6.733 3.544-10.787 11.264-55.582 57.58-64.293 103.885-78.715l67.074-21.27L490.03 31.822l60.4-19.897c6.788-2.244 28.003-8.73 32.882-11.925" fill="rgba(253, 207, 34, 1)"/>
        <path d="M12.34 659c-4.943-3.206-12.502-11.533-6.61-16.974 24.305-22.442 51.86-42.558 77.959-62.989L265.393 436.24a7436 7436 0 0 0 87.003-69.999c18.459-15.146 36.611-30.972 55.574-45.466 4.51-3.447 10.366-6.89 16.052-7.839 14.437-2.41 98.38 29.65 111.061 38.992 18.98 13.983 31.496 34.195 34.966 57.598 3.258 21.971-2.942 47.165-16.273 64.986-8.53 11.403-20.148 21.236-33.134 27.218-13.994 6.447-30.456 10.395-45.223 14.897a8323 8323 0 0 0-81.165 24.813l-284.133 88.923C97.212 634.369 29.377 654.42 23.696 659z" fill="rgba(253, 207, 34, 1)"/>
        <path d="M1923.05 472.454c-9.95 2.146-35.07 3.381-44.25-1.526-6.16-3.293-4.38-28.951-4.37-36.217l.1-48.561c.1-46.333-.06-92.874.23-139.22.02-3.167.76-14.313 2.31-16.765 1.68-2.65 8.28-6.04 11.89-6.182 9.12-.361 30.56-1.403 36.92 5.462 2.03 2.193 3.53 14.31 6.85 16.358 1.51.93 6.04-2.581 7.33-3.582 10.96-7.852 29.45-14.39 42.94-16.206 20.87-2.809 47.01-7.477 65 5.145v38.035c-4.23 4.841-5.48 5.959-10.75 9.658-12.68.751-26.13-.822-38.73.699-29.64 3.577-55.69 25.295-64.34 53.882-4.96 16.393-2.96 31.548-3.45 48.184-.8 26.992 1.67 55.793-.94 82.597-1.94 2.978-4.38 5.574-6.74 8.239" fill="rgba(21, 20, 20, 1)"/>
    </g>
</svg>
